<svg id="SvgjsSvg1016" width="288" height="288" xmlns="http://www.w3.org/2000/svg" version="1.1" xmlns:xlink="http://www.w3.org/1999/xlink" xmlns:svgjs="http://svgjs.com/svgjs"><defs id="SvgjsDefs1017"></defs><g id="SvgjsG1018"><svg xmlns="http://www.w3.org/2000/svg" viewBox="0 0 110 110" width="288" height="288"><path d="M 55.259838,8.3552854 A 48.803708,47.284523 0 0 0 6.4561061,55.640253 48.803708,47.284523 0 0 0 55.259838,102.92471 48.803708,47.284523 0 0 0 104.06358,55.640253 48.803708,47.284523 0 0 0 55.259838,8.3552854 Z m 0.57,9.0697286 a 39.924312,38.784926 0 0 1 22.70094,6.891051 l -3.42822,4.680853 a 33.657688,33.087997 0 0 0 -19.08307,-5.875094 33.657688,33.087997 0 0 0 -33.657375,33.087902 33.657688,33.087997 0 0 0 33.657375,33.088417 33.657688,33.087997 0 0 0 22.24412,-8.26151 l 3.9057,4.31498 A 39.924312,38.784926 0 0 1 55.829838,94.994953 39.924312,38.784926 0 0 1 15.90566,56.209726 39.924312,38.784926 0 0 1 55.829838,17.425014 Z m 17.30023,17.126603 c -0.078,1.723364 -0.13227,3.058814 -0.16381,4.006474 -0.0882,2.649144 -0.13694,7.202771 -0.14573,13.660665 -0.0294,6.458236 -0.002,11.537802 0.0806,15.238862 0.0541,2.711355 0.21861,6.432566 0.49403,11.16366 l -6.00067,0.0677 -8.13748,0.16795 c -3.17619,0.05289 -6.175717,0.05976 -8.998416,0.02066 -2.843324,-0.03875 -4.798015,-0.135464 -5.86476,-0.289904 -1.312087,-0.214934 -2.58726,-0.624189 -3.824573,-1.227833 -1.237311,-0.603642 -2.233067,-1.340205 -2.987413,-2.2102 -0.893699,-1.018357 -1.574146,-2.244921 -2.041737,-3.679362 -0.467587,-1.434444 -0.674076,-2.970085 -0.619598,-4.606954 0.03942,-1.184577 0.231182,-2.307251 0.575675,-3.367754 0.324583,-1.081696 0.800518,-2.058064 1.427303,-2.929536 0.626784,-0.871471 1.33047,-1.583084 2.111499,-2.134237 0.761122,-0.572347 1.475666,-0.982509 2.143538,-1.230416 0.668589,-0.269444 1.552479,-0.509876 2.652035,-0.721921 C 42.748209,56.17461 41.892919,55.86585 41.264309,55.55343 40.615074,55.241356 39.959794,54.800182 39.298537,54.229997 38.63728,53.659812 38.052722,52.948339 37.545156,52.095759 37.01768,51.221986 36.628222,50.227634 36.376751,49.112479 36.104656,47.997668 35.989144,46.826651 36.030004,45.599 c 0.05232,-1.572257 0.359384,-3.052003 0.920872,-4.439007 0.493882,-1.21367 1.157031,-2.258234 1.990061,-3.13314 0.74623,-0.744307 1.674219,-1.373135 2.783808,-1.886707 1.088964,-0.51323 2.3589,-0.878691 3.809071,-1.096573 1.098119,-0.168971 2.935803,-0.274876 5.513874,-0.317812 2.144961,-0.03572 4.711258,-0.02482 7.698238,0.03307 2.98769,0.03634 5.60519,0.03589 7.85326,-0.0016 1.60872,-0.02679 3.78565,-0.09537 6.53087,-0.205671 z m -12.72015,8.736417 -5.56865,0.0925 c -1.649967,0.02748 -2.882023,0.198739 -3.696415,0.513665 -0.814393,0.314923 -1.407298,0.787567 -1.778704,1.418 -0.392028,0.630777 -0.601348,1.344575 -0.62787,2.141471 -0.01863,0.559983 0.05523,1.11846 0.222211,1.67535 0.146359,0.557234 0.428913,1.058188 0.846976,1.503267 0.397438,0.445424 0.881589,0.760423 1.452626,0.944647 0.571034,0.184222 1.164379,0.314309 1.780249,0.390158 0.59597,0.05465 1.616042,0.07004 3.059757,0.04599 l 4.39302,-0.07338 z m 0.13177,17.401006 -6.527247,0.109037 c -1.40247,0.02336 -2.436928,0.126765 -3.102649,0.310057 -0.665004,0.161756 -1.230096,0.429356 -1.696022,0.803053 -0.465926,0.373698 -0.821293,0.831337 -1.066083,1.373561 -0.244792,0.542221 -0.379423,1.168725 -0.403076,1.87947 -0.02724,0.818436 0.09263,1.559227 0.35915,2.222087 0.245899,0.663205 0.599453,1.184982 1.060919,1.564762 0.461462,0.37978 1.142137,0.680469 2.041734,0.902271 0.736033,0.181475 1.887617,0.259165 3.455089,0.233061 l 5.940205,-0.09922 z" fill="#ffffff" class="color000 svgShape"></path><text style="line-height:1.25" x="387.771" y="142.423" stroke-width=".265" font-family="sans-serif" font-size="10.583" font-weight="400" svgjs:data="{&quot;leading&quot;:&quot;1.3&quot;}"><tspan x="387.771" y="142.423"></tspan></text></svg></g></svg>